HIERARCHY
ROOT Hips
{
     OFFSET 1.88212 96.90440 -13.34250
     CHANNELS 6 Xposition Yposition Zposition Zrotation Xrotation Yrotation
     JOINT Spine
     {
          OFFSET 0.00000 11.89050 0.00000
          CHANNELS 3 Zrotation Xrotation Yrotation
          JOINT Spine1
          {
               OFFSET -0.00000 25.65740 0.12766
               CHANNELS 3 Zrotation Xrotation Yrotation
               JOINT HEad
               {
                    OFFSET 0.00000 8.73416 0.01134
                    CHANNELS 3 Zrotation Xrotation Yrotation
                    End Site
                    {
                         OFFSET -0.29000 12.77420 2.51395
                    }
               }
               JOINT LeftShoulder1
               {
                    OFFSET 8.99000 -0.36225 -0.22000
                    CHANNELS 3 Zrotation Xrotation Yrotation
                    JOINT LeftArm
                    {
                         OFFSET 10.28270 -0.00338 0.32212
                         CHANNELS 3 Zrotation Xrotation Yrotation
                         JOINT LeftForeArm
                         {
                              OFFSET 32.76690 0.09914 -1.42434
                              CHANNELS 3 Zrotation Xrotation Yrotation
                              JOINT LeftHand
                              {
                                   OFFSET 27.56430 0.08536 1.02216
                                   CHANNELS 3 Zrotation Xrotation Yrotation
                                   End Site
                                   {
                                        OFFSET 16.74430 -0.60000 1.50291
                                   }
                              }
                         }
                    }
               }
               JOINT RightShoulder
               {
                    OFFSET -8.99000 -0.36225 -0.22000
                    CHANNELS 3 Zrotation Xrotation Yrotation
                    JOINT RightArm
                    {
                         OFFSET -10.28270 -0.00338 0.32212
                         CHANNELS 3 Zrotation Xrotation Yrotation
                         JOINT RightForeArm
                         {
                              OFFSET -32.89710 0.09914 -1.42434
                              CHANNELS 3 Zrotation Xrotation Yrotation
                              JOINT RightHand
                              {
                                   OFFSET -27.49210 0.08536 1.02216
                                   CHANNELS 3 Zrotation Xrotation Yrotation
                                   End Site
                                   {
                                        OFFSET -16.63120 -0.60000 1.50291
                                   }
                              }
                         }
                    }
               }
          }
     }
     JOINT LeftUpLeg
     {
          OFFSET 8.94580 -8.66707 0.10165
          CHANNELS 3 Zrotation Xrotation Yrotation
          JOINT LeftLeg
          {
               OFFSET 0.00000 -44.42270 1.37270
               CHANNELS 3 Zrotation Xrotation Yrotation
               JOINT LeftFoot
               {
                    OFFSET -0.25355 -42.09240 -1.46059
                    CHANNELS 3 Zrotation Xrotation Yrotation
                    JOINT LeftToes
                    {
                         OFFSET -0.04000 -4.41509 8.49910
                         CHANNELS 3 Zrotation Xrotation Yrotation
                         End Site
                         {
                              OFFSET 0.08000 -0.04745 9.77979
                         }
                    }
               }
          }
     }
     JOINT RightUpLeg
     {
          OFFSET -8.94580 -8.66707 0.10165
          CHANNELS 3 Zrotation Xrotation Yrotation
          JOINT RightLeg
          {
               OFFSET 0.00000 -44.42270 1.37270
               CHANNELS 3 Zrotation Xrotation Yrotation
               JOINT RightFoot
               {
                    OFFSET 0.25355 -42.09240 -1.46059
                    CHANNELS 3 Zrotation Xrotation Yrotation
                    JOINT RightToes
                    {
                         OFFSET 0.04000 -4.41509 8.49910
                         CHANNELS 3 Zrotation Xrotation Yrotation
                         End Site
                         {
                              OFFSET -0.08000 -0.13745 9.77979
                         }
                    }
               }
          }
     }
}
MOTION
Frames: 15
Frame Time: 0.01667
-324.81741 64.77029 309.95282 3.04671 -6.62282 -69.56654 -26.76137 62.16578 26.37629 0.01644 -0.03245 -0.05379 -8.64141 -16.84052 -53.51382 4.15626 3.92193 -8.74371 -117.91241 -21.32111 -106.06120 -37.93961 48.98619 -84.46390 4.47223 7.34467 -5.57901 24.16763 1.81435 -1.57766 82.54700 -18.28072 78.82850 34.93586 63.86280 132.42548 -1.41269 13.11296 -1.25559 -44.63432 -59.67997 -31.85953 48.93819 45.63300 -68.42383 39.71345 -0.00944 -0.01241 -65.54269 -8.59990 -0.03849 -25.81045 -14.83287 -38.24659 147.94698 80.33989 -153.80653 35.18575 -0.00609 0.03260 -66.76544 -77.68903 -45.53223 
-325.20386 64.18129 309.36670 4.00740 -7.62037 -71.01912 -31.09231 61.06681 31.19672 0.01362 -0.02850 -0.04844 -7.48125 -16.52758 -54.92169 4.93038 2.71476 -10.21453 -117.95281 -21.80743 -105.47971 -38.54812 49.39163 -85.18878 3.71726 7.29808 -5.29383 24.78425 0.28395 -3.42945 83.16495 -18.74897 79.02990 35.49409 64.18895 132.48511 -1.98470 12.26526 -2.14057 -43.76204 -61.99389 -29.07125 49.16675 46.27402 -69.63564 36.46495 -0.00728 -0.01193 -61.50467 -8.68485 -0.09576 -25.82532 -16.51057 -36.04160 148.72983 79.94418 -154.31851 37.01590 -0.00529 0.01917 -75.15145 -77.17234 -52.91342 
-325.64725 64.03389 308.95447 4.50539 -8.70390 -74.43424 -35.35178 58.64172 34.98016 0.05461 -0.05945 -0.13384 -7.18891 -16.73846 -53.17868 4.78679 2.33205 -10.09541 -118.13265 -22.61746 -104.83592 -39.44900 49.79825 -85.76346 4.50201 7.57403 -4.56316 25.10633 -0.02846 -3.97053 86.41634 -20.43148 82.48202 45.06301 65.54829 123.07006 -2.06934 13.15031 -1.83464 -38.56369 -64.69682 -21.80342 48.91721 46.86291 -70.08350 33.30999 -0.00540 -0.01210 -57.54679 -8.70879 -0.14909 -25.07282 -18.45217 -31.79197 147.31253 80.05047 -152.91983 38.70836 -0.00613 0.00855 -77.73141 -76.32916 -54.82689 
-326.07324 64.16202 308.71808 4.25521 -9.64083 -79.53840 -38.96090 55.13468 37.74009 0.04557 -0.05605 -0.11795 -7.14927 -16.11160 -49.78304 3.97000 2.90470 -8.72871 -118.34097 -23.57154 -104.31979 -40.55180 50.21273 -86.20731 4.09337 7.79601 -3.95642 24.76451 0.96584 -3.37320 88.39829 -21.54663 84.13313 50.36893 66.41418 117.53786 -3.04379 12.50841 -2.37454 -27.72148 -65.91634 -9.55732 47.35250 47.10694 -68.37366 30.14903 -0.00520 -0.01288 -53.37416 -8.93950 -0.34239 -23.34083 -20.28958 -25.70218 144.10365 80.55219 -149.91698 40.32623 -0.00849 0.00016 -79.91463 -75.86612 -56.88378 
-326.54074 64.82576 308.70370 3.78808 -10.35849 -84.11916 -39.47445 51.37164 36.77168 0.03394 -0.06213 -0.09567 -7.26752 -14.55201 -45.00425 5.20005 -5.44327 -12.41190 -119.82123 -34.73235 -97.93058 -41.84878 50.67154 -86.95782 4.66270 8.14044 -3.58341 27.03439 -7.99068 0.02740 81.20605 -23.36035 72.56684 42.24399 64.91881 122.83009 -2.21275 26.46574 -3.36619 -17.86584 -64.82971 0.79452 44.75351 47.06953 -64.87062 26.92068 -0.00441 -0.01357 -49.41262 -9.25024 -0.44562 -21.55023 -21.49688 -20.08210 132.45934 82.71288 -139.17503 42.03500 -0.00910 -0.03444 -76.02186 -74.40985 -51.49324 
-326.99747 65.77588 308.89542 3.15462 -10.85849 -88.21824 -37.98220 47.39553 33.37818 0.02855 -0.05148 -0.07868 -7.58342 -12.20855 -39.12008 3.73897 -2.36885 -8.72098 -119.94121 -35.38243 -97.98688 -43.16267 51.07421 -87.63455 4.48269 8.47224 -2.69085 25.47771 -3.73884 1.70123 82.22771 -24.02341 73.39249 37.68161 63.84285 125.53996 -6.14394 10.75664 -0.57124 -10.78145 -62.26843 7.56696 41.54757 46.75944 -60.08814 23.49141 -0.00282 -0.01447 -45.74771 -9.71939 -0.75363 -19.85893 -22.13628 -14.98227 115.93916 84.21795 -123.43471 43.71590 -0.02193 -0.02560 -73.41805 -73.20404 -47.27963 
-327.54443 67.26382 309.31079 2.37457 -11.15057 -91.90635 -35.25434 43.03165 28.56948 0.02191 -0.05118 -0.05955 -8.14154 -9.09061 -32.41991 4.67559 -8.78175 -10.94895 -119.87000 -46.83826 -91.47108 -45.26047 53.49142 -92.33022 6.25685 9.40154 1.97971 28.63800 -9.85855 4.40831 73.64635 -22.24002 61.71579 26.95072 60.23677 133.16096 -2.20671 31.00277 -1.08149 -6.40188 -58.75804 10.98716 37.87740 46.00701 -54.23051 19.88230 0.00117 -0.01123 -42.21894 -9.96062 -0.88600 -18.60787 -21.18048 -10.45760 64.67014 84.66630 -72.62843 45.41313 -0.02445 -0.04901 -65.42395 -70.58984 -38.86411 
-328.19595 68.99110 309.89624 1.50726 -11.23959 -95.20441 -31.81806 38.25293 22.92251 0.02051 -0.03795 -0.04902 -9.09496 -5.42229 -25.03866 2.93414 -3.87296 -6.21910 -120.42001 -47.37508 -92.60470 -46.79810 54.58519 -94.56500 6.74223 10.65852 5.25111 26.62009 -3.36679 6.73477 74.15591 -22.79839 62.71265 22.21125 57.70865 135.82022 -11.30601 17.39577 1.24482 -3.99490 -54.74110 11.78721 33.90775 44.83973 -47.52667 16.15866 0.00498 -0.00418 -38.54359 -9.78645 -0.98482 -17.95687 -19.07298 -6.60339 33.60841 81.37360 -41.45279 46.94110 -0.02915 -0.02928 -62.76987 -68.42607 -34.48629 
-329.06421 71.07936 310.65506 0.60107 -11.15834 -98.14013 -27.96613 32.94957 16.89419 0.02486 -0.03574 -0.03318 -10.62034 -1.24629 -17.18595 0.43577 0.90357 -1.22381 -123.25460 -45.96645 -98.34845 -50.60442 53.98330 -89.54549 3.58314 13.83040 -11.00874 24.83871 3.11731 9.36021 75.98598 -24.51008 67.13305 26.07160 57.43922 129.86281 -5.22300 20.55505 1.13084 -2.94473 -50.34497 10.69140 29.81565 43.15535 -40.15817 12.43186 0.00729 0.00496 -35.01155 -9.32059 -1.01140 -17.94873 -16.09264 -3.47809 21.69728 76.63201 -28.95168 48.45472 -0.02596 -0.02362 -59.61888 -66.27331 -29.69916 
-330.03033 73.13942 311.48428 -0.29587 -10.91065 -100.75536 -23.92977 27.03753 10.77900 0.02486 -0.03778 -0.03038 -12.85360 3.33733 -8.89578 2.53717 -2.68081 -2.25420 -126.14364 -56.10017 -96.35130 -52.85342 53.75695 -86.98403 7.19900 12.17384 0.68324 28.11584 0.01742 9.52944 71.75793 -21.53058 62.15388 33.53167 59.23483 120.59953 -10.56212 13.75342 0.75493 -2.19110 -46.50097 9.42502 26.46207 41.51283 -33.72328 8.89557 0.00693 0.01107 -31.36829 -8.42698 -1.00571 -18.12785 -13.51293 -0.75585 17.25431 72.11570 -23.96890 50.02152 -0.02531 -0.02293 -58.30472 -64.28877 -26.17886 
-331.06628 75.35941 312.37347 -1.20409 -10.57731 -103.29007 -20.60612 21.02556 5.53339 -0.01330 -0.00295 -0.00169 -15.37817 7.67690 -0.66662 3.08815 -3.44930 -1.50347 -128.10358 -63.51271 -95.85279 -54.69277 53.78245 -85.18748 9.03760 11.79435 6.87995 30.05733 0.07088 8.35261 70.24815 -17.68013 59.49600 35.61398 61.39421 117.29842 -14.12804 9.11435 -1.26531 -1.64353 -42.88700 8.08045 23.69491 39.79450 -27.81377 5.40453 0.00658 0.01387 -27.81890 -7.38640 -0.91258 -18.46370 -11.19963 1.86948 15.13621 67.72360 -21.34983 51.64877 -0.02523 -0.02487 -57.10202 -62.03039 -22.78887 
-332.10614 77.51538 313.24683 -2.08580 -10.15713 -105.73885 -17.77183 14.99559 0.93115 -0.01824 -0.00015 -0.00010 -18.30624 11.78886 7.58639 2.60235 -2.07194 0.33820 -130.45976 -68.68747 -97.24850 -56.02535 53.87210 -83.72346 7.98330 13.56121 4.95529 29.94427 2.33407 6.20628 71.15897 -13.64206 58.60363 36.76058 63.95361 115.61369 -14.02997 11.43826 -1.46861 -1.25667 -39.44471 6.68838 21.32170 38.05354 -22.27587 2.00920 0.00604 0.01494 -24.23804 -6.27728 -0.73881 -18.90927 -9.08136 4.39782 13.99172 63.38920 -19.73269 53.29595 -0.02625 -0.02611 -55.95744 -59.40178 -19.61061 
-333.11273 79.77755 314.07578 -2.90957 -9.66550 -108.11012 -15.24909 9.01510 -3.16084 -0.01709 0.00186 0.00527 -21.65592 15.57532 15.81034 1.46586 0.72141 2.91748 -134.07216 -72.04266 -100.74149 -56.86781 53.88046 -82.39290 5.75742 16.57003 -1.11425 27.91771 6.04182 4.22615 73.80128 -10.09593 58.88597 35.25219 65.38423 116.76303 -11.90382 16.51049 -1.94770 -0.97761 -36.09107 5.29980 19.18833 36.22754 -16.99397 -1.27423 0.00589 0.01581 -20.55149 -5.04007 -0.51017 -19.43186 -7.07814 6.83684 13.29250 58.98003 -18.59562 54.89411 -0.02665 -0.02671 -48.18269 -52.66495 -11.17470 
-334.04276 81.78731 314.83630 -3.96834 -8.50233 -110.53378 -12.74958 3.20684 -6.62049 -0.02144 -0.02027 0.01028 -25.26561 18.88335 24.31912 -0.79959 0.85810 5.44314 -126.92853 -76.19357 -96.09037 -54.67749 52.31788 -83.20888 7.93423 20.08719 -8.47879 23.81991 7.86547 5.87573 76.68958 -8.83990 56.63802 33.04813 64.70483 117.11729 -9.23587 19.88164 -8.77958 -0.21790 -32.31060 4.06394 17.25215 34.38890 -11.93537 -4.45835 0.00604 0.01379 -16.86093 -4.45600 -0.28483 -19.51952 -4.68979 9.43693 12.28721 54.05458 -16.94185 56.58581 -0.03823 -0.03244 -42.84114 -46.33629 -0.58223 
-334.86246 83.81257 315.64108 -5.19840 -6.69855 -112.94763 -10.19346 -2.27367 -9.50476 -0.01947 -0.01404 0.02178 -28.91073 21.65149 32.87590 -3.17427 -1.10008 8.31048 -101.15824 -78.97163 -74.54539 -50.10437 49.52971 -85.49397 12.76037 23.11732 -16.09987 19.63948 8.36656 11.21936 78.34875 -10.47772 52.70775 30.37014 62.41084 116.54476 -5.25818 21.08878 -18.29304 0.99401 -28.12910 2.95828 14.94169 32.82038 -6.58597 -7.03810 0.01016 0.00491 -13.28464 -4.41909 -0.41726 -19.23852 -1.82822 12.16809 11.24296 48.66804 -15.03620 58.24360 -0.04616 -0.02957 -40.10165 -39.61073 10.08475 
